<?xml version="1.0" encoding="UTF-8"?>
<svg xmlns="http://www.w3.org/2000/svg" xmlns:se="https://standardebooks.org/vocab/1.0" version="1.1" viewBox="0 0 1400 340" se:generated-from="0e123d0e7568342af635fd54760cb5308b325a38">
	<path d="M 161.44537,97.628336 186.33499,97.628336 186.33499,128.60001 203.92615,128.60001 203.92615,51.404756 186.33499,51.404756 186.33499,82.189286 161.44537,82.189286 161.44537,51.404756 143.85421,51.404756 143.85421,128.60001 161.44537,128.60001 161.44537,97.628336 Z"/>
	<path d="M 264.11827,51.404756 219.95323,51.404756 219.95323,128.60001 264.11827,128.60001 264.11827,113.16096 237.54439,113.16096 237.54439,97.628336 262.99543,97.628336 262.99543,82.189286 237.54439,82.189286 237.54439,66.843806 264.11827,66.843806 264.11827,51.404756 Z"/>
	<path d="M 318.81023,51.404756 302.52905,51.404756 271.37024,128.60001 290.27138,128.60001 295.97915,113.16096 325.36013,113.16096 331.0679,128.60001 349.96904,128.60001 318.81023,51.404756 Z M 319.37165,97.721906 301.96763,97.721906 310.57607,75.265106 310.76321,75.265106 319.37165,97.721906 Z"/>
	<path d="M 357.71372,51.404756 357.71372,128.60001 375.30488,128.60001 375.30488,98.096186 398.88452,128.60001 421.24775,128.60001 394.67387,96.692636 C 404.12444,93.698396 410.4872,85.932086 410.4872,74.329406 410.4872,59.171066 399.63308,51.404756 385.31687,51.404756 L 357.71372,51.404756 Z M 375.30488,85.651376 375.30488,65.440256 377.36342,65.440256 C 384.00689,65.440256 391.96034,65.908106 391.96034,75.545816 391.96034,85.183526 384.00689,85.651376 377.36342,85.651376 L 375.30488,85.651376 Z"/>
	<path d="M 421.08869,66.843806 439.42841,66.843806 439.42841,128.60001 457.01957,128.60001 457.01957,66.843806 475.35929,66.843806 475.35929,51.404756 421.08869,51.404756 421.08869,66.843806 Z"/>
	<path d="M 513.46771,89.955596 C 513.46771,112.50597 529.56175,130.00356 552.39283,130.00356 574.56892,130.00356 591.22438,112.50597 591.22438,89.955596 591.22438,67.405226 573.82036,50.001206 552.39283,50.001206 531.15244,50.001206 513.46771,67.405226 513.46771,89.955596 Z M 532.46242,89.955596 C 532.46242,78.446486 538.82518,66.937376 552.39283,66.937376 566.05405,66.937376 572.22967,78.446486 572.22967,89.955596 572.22967,101.46471 566.42833,112.97382 552.39283,112.97382 537.98305,112.97382 532.46242,101.46471 532.46242,89.955596 Z"/>
	<path d="M 648.44419,51.404756 603.8113,51.404756 603.8113,128.60001 621.40246,128.60001 621.40246,97.628336 646.38565,97.628336 646.38565,82.189286 621.40246,82.189286 621.40246,66.843806 648.44419,66.843806 648.44419,51.404756 Z"/>
	<path d="M 692.04549,51.404756 692.04549,128.60001 714.40872,128.60001 C 735.64911,128.60001 753.33384,112.50597 753.33384,89.955596 753.33384,67.498796 735.55554,51.404756 714.40872,51.404756 L 692.04549,51.404756 Z M 709.63665,112.88025 709.63665,67.124516 712.35018,67.124516 C 725.44998,67.124516 734.33913,77.136506 734.33913,90.049166 734.24556,102.96183 725.35641,112.88025 712.35018,112.88025 L 709.63665,112.88025 Z"/>
	<path d="M 805.15733,51.404756 788.87615,51.404756 757.71734,128.60001 776.61848,128.60001 782.32625,113.16096 811.70723,113.16096 817.415,128.60001 836.31614,128.60001 805.15733,51.404756 Z M 805.71875,97.721906 788.31473,97.721906 796.92317,75.265106 797.11031,75.265106 805.71875,97.721906 Z"/>
	<path d="M 844.06081,51.404756 844.06081,128.60001 861.65197,128.60001 861.65197,98.096186 885.23161,128.60001 907.59484,128.60001 881.02096,96.692636 C 890.47153,93.698396 896.83429,85.932086 896.83429,74.329406 896.83429,59.171066 885.98017,51.404756 871.66396,51.404756 L 844.06081,51.404756 Z M 861.65197,85.651376 861.65197,65.440256 863.71051,65.440256 C 870.35398,65.440256 878.30743,65.908106 878.30743,75.545816 878.30743,85.183526 870.35398,85.651376 863.71051,85.651376 L 861.65197,85.651376 Z"/>
	<path d="M 986.22757,128.60001 950.29669,87.990626 981.36193,51.404756 960.02797,51.404756 933.54766,82.937846 933.54766,51.404756 915.9565,51.404756 915.9565,128.60001 933.54766,128.60001 933.54766,95.850506 961.99294,128.60001 986.22757,128.60001 Z"/>
	<path d="M 1012.0225,80.692166 1012.2096,80.692166 1042.9006,128.60001 1060.4917,128.60001 1060.4917,51.404756 1042.9006,51.404756 1042.9006,99.312596 1042.7134,99.312596 1012.0225,51.404756 994.43129,51.404756 994.43129,128.60001 1012.0225,128.60001 1012.0225,80.692166 Z"/>
	<path d="M 1120.7262,51.404756 1076.5612,51.404756 1076.5612,128.60001 1120.7262,128.60001 1120.7262,113.16096 1094.1523,113.16096 1094.1523,97.628336 1119.6034,97.628336 1119.6034,82.189286 1094.1523,82.189286 1094.1523,66.843806 1120.7262,66.843806 1120.7262,51.404756 Z"/>
	<path d="M 1164.1094,50.001206 C 1151.6646,50.001206 1138.939,59.171066 1138.939,73.580846 1138.939,81.627866 1144.3661,88.832756 1153.6295,93.417686 1162.7994,98.002616 1171.0335,100.52901 1171.0335,106.14321 1171.0335,113.3481 1163.7351,113.72238 1159.8987,113.72238 1151.2903,113.72238 1140.9976,105.02037 1140.9976,105.02037 L 1132.202,119.80443 C 1132.202,119.80443 1143.1497,130.00356 1161.2087,130.00356 1176.2735,130.00356 1190.309,123.54723 1190.309,105.11394 1190.309,95.008376 1180.8584,87.709916 1172.25,84.060686 1163.4544,80.317886 1156.1559,77.230076 1156.1559,72.925856 1156.1559,68.715206 1159.3373,66.001676 1165.3258,66.001676 1173.2792,66.001676 1180.952,71.335166 1180.952,71.335166 L 1188.0633,57.299666 C 1188.0633,57.299666 1178.1449,50.001206 1164.1094,50.001206 Z"/>
	<path d="M 1229.9742,50.001206 C 1217.5294,50.001206 1204.8038,59.171066 1204.8038,73.580846 1204.8038,81.627866 1210.2309,88.832756 1219.4943,93.417686 1228.6642,98.002616 1236.8983,100.52901 1236.8983,106.14321 1236.8983,113.3481 1229.5999,113.72238 1225.7635,113.72238 1217.1551,113.72238 1206.8624,105.02037 1206.8624,105.02037 L 1198.0668,119.80443 C 1198.0668,119.80443 1209.0145,130.00356 1227.0735,130.00356 1242.1383,130.00356 1256.1738,123.54723 1256.1738,105.11394 1256.1738,95.008376 1246.7232,87.709916 1238.1148,84.060686 1229.3192,80.317886 1222.0207,77.230076 1222.0207,72.925856 1222.0207,68.715206 1225.2021,66.001676 1231.1906,66.001676 1239.144,66.001676 1246.8168,71.335166 1246.8168,71.335166 L 1253.9281,57.299666 C 1253.9281,57.299666 1244.0097,50.001206 1229.9742,50.001206 Z"/>
	<path d="M 386.82543,231.05151 373.63159,231.05151 373.63159,269.22943 C 373.63159,275.05437 370.75421,277.37031 366.96449,277.37031 363.59585,277.37031 359.45523,273.44023 359.45523,273.44023 L 355.24443,284.45849 C 355.24443,284.45849 360.50793,290.00271 368.78917,290.00271 380.36887,290.00271 386.82543,283.96723 386.82543,272.59807 L 386.82543,231.05151 Z"/>
	<path d="M 396.93103,259.96567 C 396.93103,276.87905 409.00199,290.00271 426.12591,290.00271 442.75857,290.00271 455.25061,276.87905 455.25061,259.96567 455.25061,243.05229 442.19713,229.99881 426.12591,229.99881 410.19505,229.99881 396.93103,243.05229 396.93103,259.96567 Z M 411.17757,259.96567 C 411.17757,251.33353 415.94981,242.70139 426.12591,242.70139 436.37219,242.70139 441.00407,251.33353 441.00407,259.96567 441.00407,268.59781 436.65291,277.22995 426.12591,277.22995 415.31819,277.22995 411.17757,268.59781 411.17757,259.96567 Z"/>
	<path d="M 487.40698,229.99881 C 478.07304,229.99881 468.52856,236.87645 468.52856,247.68417 468.52856,253.71965 472.599,259.12351 479.54682,262.56233 486.42446,266.00115 492.6003,267.89601 492.6003,272.10681 492.6003,277.51067 487.12626,277.79139 484.24888,277.79139 477.79232,277.79139 470.07252,271.26465 470.07252,271.26465 L 463.4756,282.35309 C 463.4756,282.35309 471.68666,290.00271 485.2314,290.00271 496.53038,290.00271 507.05738,285.16029 507.05738,271.33483 507.05738,263.75539 499.9692,258.28135 493.51264,255.54433 486.91572,252.73713 481.44168,250.42119 481.44168,247.19291 481.44168,244.03481 483.8278,241.99959 488.31932,241.99959 494.28462,241.99959 500.03938,245.99985 500.03938,245.99985 L 505.37306,235.47285 C 505.37306,235.47285 497.93398,229.99881 487.40698,229.99881 Z"/>
	<path d="M 551.3494,231.05151 518.22444,231.05151 518.22444,288.95001 551.3494,288.95001 551.3494,277.37031 531.41828,277.37031 531.41828,265.72043 550.50724,265.72043 550.50724,254.14073 531.41828,254.14073 531.41828,242.63121 551.3494,242.63121 551.3494,231.05151 Z"/>
	<path d="M 563.93433,231.05151 563.93433,288.95001 577.12817,288.95001 577.12817,267.47493 585.05851,267.47493 C 596.35749,267.47493 604.84927,260.80783 604.84927,248.87723 604.84927,236.87645 596.35749,231.05151 585.05851,231.05151 L 563.93433,231.05151 Z M 577.12817,256.94793 577.12817,241.57851 580.84771,241.57851 C 586.04103,241.57851 590.95363,243.33301 590.95363,249.29831 590.95363,255.19343 586.04103,256.94793 580.84771,256.94793 L 577.12817,256.94793 Z"/>
	<path d="M 628.86915,265.72043 647.53703,265.72043 647.53703,288.95001 660.73087,288.95001 660.73087,231.05151 647.53703,231.05151 647.53703,254.14073 628.86915,254.14073 628.86915,231.05151 615.67531,231.05151 615.67531,288.95001 628.86915,288.95001 628.86915,265.72043 Z"/>
	<path d="M 726.93846,277.01941 C 713.67444,277.01941 707.8495,267.75565 707.8495,259.96567 707.8495,252.24587 713.67444,242.98211 726.93846,242.98211 733.67574,242.98211 738.30762,246.56129 738.30762,246.56129 L 743.92202,235.33249 C 743.92202,235.33249 737.46546,229.99881 724.90324,229.99881 708.48112,229.99881 693.53278,243.47337 693.53278,260.10603 693.53278,276.66851 708.5513,290.00271 724.90324,290.00271 737.46546,290.00271 743.92202,284.66903 743.92202,284.66903 L 738.30762,273.44023 C 738.30762,273.44023 733.67574,277.01941 726.93846,277.01941 Z"/>
	<path d="M 751.44193,259.96567 C 751.44193,276.87905 763.51289,290.00271 780.63681,290.00271 797.26947,290.00271 809.76151,276.87905 809.76151,259.96567 809.76151,243.05229 796.70803,229.99881 780.63681,229.99881 764.70595,229.99881 751.44193,243.05229 751.44193,259.96567 Z M 765.68847,259.96567 C 765.68847,251.33353 770.46071,242.70139 780.63681,242.70139 790.88309,242.70139 795.51497,251.33353 795.51497,259.96567 795.51497,268.59781 791.16381,277.22995 780.63681,277.22995 769.82909,277.22995 765.68847,268.59781 765.68847,259.96567 Z"/>
	<path d="M 833.77699,253.01785 833.91735,253.01785 856.93639,288.95001 870.13023,288.95001 870.13023,231.05151 856.93639,231.05151 856.93639,266.98367 856.79603,266.98367 833.77699,231.05151 820.58314,231.05151 820.58314,288.95001 833.77699,288.95001 833.77699,253.01785 Z"/>
	<path d="M 883.56392,231.05151 883.56392,288.95001 896.75776,288.95001 896.75776,266.07133 914.44312,288.95001 931.21614,288.95001 911.28502,265.01863 C 918.3732,262.77287 923.14544,256.94793 923.14544,248.24561 923.14544,236.87645 915.00456,231.05151 904.26702,231.05151 L 883.56392,231.05151 Z M 896.75776,256.73739 896.75776,241.57851 898.30172,241.57851 C 903.2845,241.57851 909.2498,241.92941 909.2498,249.15795 909.2498,256.38649 903.2845,256.73739 898.30172,256.73739 L 896.75776,256.73739 Z"/>
	<path d="M 968.27415,231.05151 956.06283,231.05151 932.69289,288.95001 946.86925,288.95001 951.15023,277.37031 973.18675,277.37031 977.46773,288.95001 991.64409,288.95001 968.27415,231.05151 Z M 968.69523,265.79061 955.64175,265.79061 962.09831,248.94741 962.23867,248.94741 968.69523,265.79061 Z"/>
	<path d="M 998.83388,231.05151 998.83388,288.95001 1015.6069,288.95001 C 1031.5378,288.95001 1044.8018,276.87905 1044.8018,259.96567 1044.8018,243.12247 1031.4676,231.05151 1015.6069,231.05151 L 998.83388,231.05151 Z M 1012.0277,277.15977 1012.0277,242.84175 1014.0629,242.84175 C 1023.8881,242.84175 1030.5552,250.35101 1030.5552,260.03585 1030.4851,269.72069 1023.818,277.15977 1014.0629,277.15977 L 1012.0277,277.15977 Z"/>
</svg>
